<svg width="1080" height="1080" viewBox="0 0 1080 1080" fill="none" xmlns="http://www.w3.org/2000/svg">
  <path d="M755.881 306.947c-1.504 3.651-2.364 7.786-4.661 10.843-3.1 4.129-4.728 8.802-6.777 13.338-1.287 2.854-.674 5.75.545 8.56 2.166 5.001 4.37 9.996 6.344 15.078 2.94 7.569 2.5 15.034-1.455 22.158-3.286 5.917-6.734 11.741-10.113 17.602-.254.446-.433 1.034-.823 1.281-5.212 3.386-5.286 9.037-5.855 14.193-.91 8.281-4.673 15.195-9.891 21.192-3.126 3.59-7.551 6.047-12.131 9.575 2.438 6.381 5.019 13.245 7.681 20.072 2.197 5.645 4.004 11.494 2.971 17.51-.867 5.063-4.079 9.197-7.557 13.01-5.107 5.601-10.132 11.277-15.127 16.977-.464.533-.638 1.449-.675 2.204-.099 1.745-.217 3.528 0 5.255.86 6.839-3.157 11.209-7.786 15.071-5.787 4.827-13.134 6.133-20.122 8.17-2.878.835-5.793 1.541-8.64 2.457-13.19 4.227-26.286 8.752-39.563 12.657-7.464 2.197-15.25 3.404-22.876.316-1.64-.663-3.094-1.981-4.388-3.25-1.058-1.039-1.665-1.999-3.528-1.268-10.113 3.967-20.387 7.544-30.427 11.691-7.353 3.039-14.421 6.771-21.632 10.163-5.347 2.513-9.921 6.171-13.412 10.776-1.442 1.9-1.157 5.131-1.572 7.774-.421 2.711-1.374 5.019-4.029 6.282-1.764.842-2.786.514-3.473-1.516-5.452-16.136-11.246-32.16-16.309-48.42-1.107-3.559-2.822-4.976-5.811-5.775-3.361-.897-5.453-3.088-6.233-6.313-1.207-4.957-2.036-10.008-3.188-14.978-.458-1.987-.947-3.41-3.707-4.444-4.692-1.752-8.987-4.952-12.954-8.151-6.047-4.878-10.559-11.147-14.236-17.993-1.244-2.315-1.485-4.549-.743-7.235 1.733-6.276 3.559-12.608 4.333-19.045 1.764-14.681 3.974-29.201 9.94-42.651l-24.826-18.927c-.321-.248-.594-.594-.947-.761-7.223-3.46-6.43-7.149-5.452-14.186.662-4.803.854-5.212-3.138-7.496-1.554-.885-3.039-1.887-4.574-2.804-2.266-1.355-4.389-2.314-7.366-2.376-5.063-.105-9.581-2.686-13.356-6.214-2.371-2.216-4.599-4.599-7.025-6.753-4.976-4.394-6.895-9.996-6.938-16.458-.007-1.002-.595-1.999-1.158-3.756.309-2.396.86-5.818 1.17-9.26.328-3.633 0-7.39.823-10.887.415-1.77 2.736-3.101 4.654-5.112l-1.064-4.116c-2.723-.588-5.205-.731-7.279-1.721-1.102-.526-2.11-2.556-2.055-3.862.074-1.745.861-3.757 2.006-5.088 1.299-1.516 2.698-2.661 2.383-4.926-.099-.712.272-1.579.643-2.253 1.492-2.705 3.132-5.329 4.593-8.053 2.11-3.936 3.837-4.797 7.644-2.544 2.723 1.61 5.162 1.585 8.027.923 2.934-.681 5.985-.817 8.956-1.337.929-.161 1.987-.563 2.625-1.207 3.713-3.739 8.423-3.67 12.669-2.29 4.37 1.417 8.269-.638 12.428-.26 2.396.216 4.921-.601 7.341-1.145 2.866-.65 9.371 1.405 10.528 3.484 4.209-.631 3.664-4.295 4.252-7.031.879-4.097 1.356-8.281 1.962-12.428.105-.73.316-1.783-.062-2.191-2.927-3.163-2.277-6.635-.625-9.878 2.315-4.549 5.125-8.851 7.613-13.32 1.535-2.76 2.829-5.663 4.302-8.461.885-1.677 2.11-3.193 2.816-4.933.495-1.225.625-2.735.452-4.054-.291-2.234-1.151-4.407-1.405-6.641-.415-3.664 2.135-7.693 5.496-9.47 3.336-1.77 6.722-3.503 9.847-5.607 1.838-1.238 3.33-3.07 4.735-4.822.328-.408-.124-1.72-.545-2.414-4.419-7.284-8.9-14.495-11.803-22.622-.687-1.925-3.2-3.379-5.137-4.642-2.816-1.838-4.438-4.14-3.918-7.532.836-5.459-.656-9.643-5.564-12.744-4.5-2.847-4.456-8.059-5.626-12.633-1.677-6.579-1.238-13.827-6.443-19.372-1.083-1.152-.644-3.708-.96-5.602-.513-3.051-1.312-6.078-1.485-9.142-.068-1.157 1.393-3.484 1.931-3.422 4.066.489 5.985-2.946 8.368-4.79 6.449-4.983 13.722-8.165 21.242-10.634 14.39-4.729 28.898-9.142 43.511-13.103 9.872-2.68 20.011-4.364 30.031-6.511.155-.031.26-.285.39-.434h5.57c5.534 1.176 8.573 4.915 10.269 10.021.315.947.532 1.937.959 2.829 1.646 3.447 2.959 7.16 6.907 8.838.434.186.929.693 1.022 1.133.909 4.27-2.903 12.249-6.518 14.062.922 5.057 1.832 10.052 2.748 15.053 1.059-.359 1.857-.52 2.55-.879 2.451-1.288 3.683-.625 3.695 2.197 0 1.176-.241 2.395-.588 3.534-.866 2.835-1.918 5.614-2.773 8.449-1.559 5.205-2.209 10.218 1.121 15.256 2.327 3.528 3.819 7.601 5.496 11.042 12.032-3.967 22.102-.507 31.9 5.459 2.24-2.667 5.453-4.103 8.931-3.423 4.964.972 9.78 2.699 14.682 4.017 5.1 1.374 10.193 2.81 15.355 3.9 4.766 1.009 8.523 3.02 11.37 7.235 2.983 4.419 6.747 8.306 10.052 12.509a340 340 0 0 1 8.9 11.902c.545.755.916 1.968.743 2.847-.861 4.326-1.925 8.616-2.984 13.177.05.025.787.328 1.455.737 7.873 4.815 15.498 9.915 18.147 19.521.879 3.188 1.597 6.14 5.837 5.837.285-.019.662.427.897.736 1.938 2.476 5.249 3.677 6.171 7.18.409 1.547 1.615 3.175 2.928 4.141 6.238 4.604 10.039 10.998 13.164 17.806 1.492 3.25 3.293 6.716.91 10.528-1.875 2.99-.854 6.116-.086 9.278.879 3.603 1.132 7.359 1.955 10.974.527 2.309 1.597 4.5 2.42 6.74v8.047zM328.196 998.919c1.714-5.627 5.514-9.439 11.122-10.603 3.447-.718 7.347-.483 10.813.316 8.943 2.061 17.825 2.03 26.75.396 12.905-2.358 25.086-6.889 35.243-15.189 10.125-8.275 19.521-17.485 22.622-31.114.291-1.269 1.85-2.228 2.748-3.391.408-.527.668-1.183.928-1.814 1.38-3.317 2.686-6.672 4.147-9.959.384-.866 1.244-1.522 1.882-2.277a673 673 0 0 0 1.993 2.29c4.728-1.839 8.795.433 12.737 3.342 2.755 2.03 5.707 3.8 8.381 5.929 3.707 2.959 7.501 5.893 10.689 9.365 1.12 1.219 1.293 4.233.662 5.991-2.643 7.409-5.595 14.719-8.739 21.935-1.894 4.352-1.207 7.013 4.177 11.036-1.85 6.697-3.856 13.592-5.644 20.548-2.049 7.98-4.159 15.96-5.769 24.04-1.856 9.28-7.681 16.55-11.84 24.66-.6 1.17-2.272 1.8-3.448 2.68h-4.332c-.743-.41-1.455-1.11-2.234-1.18-3.349-.33-6.716-.62-10.077-.64-6.468-.05-12.75-.69-18.883-3.1-7.508-2.95-15.109-5.8-22.87-7.96-7.13-1.98-13.889-4.31-19.949-8.73-7.569-5.53-14.675-11.75-23.383-15.67-4.091-1.84-7.823-4.56-11.556-7.12-3.682-2.53-5.335-6.41-6.17-10.68zm369.257-87.184c1.517 1.275 2.6 2.117 3.597 3.057.414.39.786.941.947 1.486 2.407 8.195 4.771 16.396 7.198 24.782 2.308-.947 3.856-1.578 5.292-2.166 5.997 5.236 6.684 12.762 9.048 19.323 3.887 10.8 6.753 21.966 10.095 32.965.514 1.689 1.108 3.398 1.968 4.926 1.269 2.266.162 3.652-1.417 4.992-.383.33-.823.59-1.244.88-8.083 5.52-16.055 11.21-24.275 16.51-6.579 4.24-13.474 8-20.22 11.98-5.218 3.08-10.163 6.81-15.696 9.12-6.549 2.75-13.574 4.39-20.444 6.31-3.745 1.05-7.638 2.47-11.413 2.34-9.6-.33-19.429 1.04-28.682-2.99-2.346-1.02-5.242-1.04-7.291-2.42-4.215-2.83-4.933-9.15-2.129-13.72.297-.48.303-1.15.86-.93 1.931-.88 4.122-1.43 5.738-2.7 5.366-4.22 10.571-8.66 15.764-13.09 6.264-5.35 12.843-10.41 18.556-16.294 4.37-4.506 7.916-9.928 11.215-15.312 1.399-2.284 1.529-5.509 1.708-8.338.297-4.722.366-9.488.118-14.21-.111-2.148-.427-4.172 1.374-5.614 1.25-1.003 2.754-1.77 4.258-2.346 1.709-.656 3.609-.829 5.274-1.553.557-.242.928-1.56.86-2.34-.043-.489-1.083-.873-1.659-1.325-.637-.501-1.795-1.021-1.801-1.541-.031-3.484.062-6.981.353-10.46.557-6.653 5.409-10.361 10.243-13.746 3.677-2.575 7.892-4.376 11.865-6.53.26-.142.693-.477.755-.415 3.51 3.435 6.592-.65 9.198-.637zm-136.37-148.7c-4.097-4.122-5.936-9.321-6.276-14.755.39-.96.966-1.894 1.133-2.891.761-4.419 1.398-8.857 2.172-13.846a967 967 0 0 0 3.188 2.006c1.089-3.107 1.714-6.709 3.484-9.618 5.793-9.513 7.923-20.5 12.713-30.396 1.541-3.182 2.191-6.821 3.912-9.879 1.863-3.305 4.5-6.17 6.895-9.364 3.249 1.126 3.416 1.597 2.333 5.459-3.763 13.48-8.015 26.849-14.452 39.253a151 151 0 0 0-8.089 18.518c-.106.285-.205.737-.403.799-4.171 1.275-2.835 5.44-4.283 8.133-1.003 1.863-2.321 3.713-2.692 5.713-.365 1.968.254 4.128.514 6.189.185 1.467.489 2.921.742 4.382l-.903.297zM393.735 246.507c-.266 1.826 2.011 3.337-1.418 4.376-3.088.935-2.791-.897-3.596-2.506 1.647-.613 3.12-1.164 5.014-1.87" fill="#fff"/>
  <path d="M420.553 276.018c-2.228 3.281-6.406 1.931-9.141 3.999-.149-.328-.291-.663-.44-.991 3.058-1.312 6.122-2.624 9.179-3.942.136.309.266.625.402.934m18.098-5.292h11.413l-.037.768c-3.812.272-7.613.247-11.413.056zm-27.834 9.359-.433.711c-.148-.167-.439-.352-.421-.501.025-.21.279-.39.433-.588.13.118.26.229.421.378" fill="#fff"/>
  <path d="M591.058 124.503c.954 2.172-.996 3.212-2.092 4.115-.829.688-2.822.743-3.874.223-1.925-.947-3.194-2.494-4.141-4.803-1.844-4.487-.291-8.058 1.801-11.586.792-1.331 2.259-2.748 4.401-.867.681.601 2.661-.278 4.233-.507-3.262-6.493-6.189-7.007-10.837-2.29-1.498 1.516-2.736 3.292-4.184 4.858-.526.57-1.325.885-2 1.319-.34-.867-1.101-1.82-.946-2.587 1.596-8.189 8.671-13.097 15.597-10.033.26.111.557.148.922.241v-9.074c-.848.644-1.535 1.263-2.309 1.733-3.199 1.95-6.987-.142-7.476-3.936-.737-5.688.068-10.64 5.545-13.827 2.414-1.405 1.35-4.555.464-5.026-2.661-1.405-1.306-3.577-1.875-5.508-16.705 5.248-33.93 9.302-46.909 22.368-.929.935-2.111 1.622-2.965 2.612-2.005 2.327-4.58 4.53-2.247 8.219-5.347-.383-5.31-5.384-7.631-7.377-6.227 1.28-12.162 2.605-18.141 3.707-5.645 1.046-11.314 1.931-16.996 2.754-8.554 1.238-17.139 2.526-25.767.867-.903-.173-1.801-1.715-2.215-2.804-1.523-4.004-2.866-8.07-4.209-12.144-.248-.76-.464-1.72-.217-2.42 1.145-3.169-1.083-5.118-2.364-7.501-2.111-3.943-5.527-7.334-5.15-12.385.26-3.534.638-4.091 4.03-4.104 6.814-.018 6.901 0 8.974-6.826.607-1.993.594-4.172.984-7.155 2.427-1.442 5.868-3.479 9.674-5.732-.154-1.69-.47-3.732-.476-5.78-.006-1.548-.093-3.516.767-4.488.564-.631 2.816-.012 4.209.396 1.801.526 3.466 1.56 5.273 2.037.706.185 2.309-.452 2.383-.898.563-3.441 3.349-4.27 5.899-5.41 1.095-.488 2.185-1.2 3.33-1.324 3.243-.346 4.276-2.364 4.524-5.23.142-1.615.322-3.664 2.488-3.404 1.764.21 4.395-.322 4.45 3.132.025 1.269 1.22 2.952 3.596 1.795 2.111-1.028 4.611-1.207 6.858-2 .941-.334 1.708-1.231 2.451-1.974.489-.489.836-1.133 1.176-1.745q2.73-4.902 7.644-4.184c.848 1.751 1.139 3.385 2.104 4.134 2.606 2.012-.012 3.875.211 6.239 1.578.285 3.268.588 4.927.879.953-2.265 1.64-4.258 2.599-6.103.891-1.714 2.08-3.274 3.132-4.902.371.08.749.155 1.12.235.167 1.535.341 3.076.532 4.86 1.504-.304 3.652-1.4 5.429-.966 4.821 1.182 7.817-.613 9.989-4.673.328-.607.861-1.102 1.3-1.653h3.095c.841 3.578 1.677 7.155 2.599 11.085 2.501.978 5.614 2.197 7.929 3.107 1.751-.507 2.958-1.194 4.097-1.095 1.306.111 2.55.922 3.955 1.485 0 1.145-.569 3.052.099 3.72 2.835 2.829.966 5.707.545 8.554 4.772 2.116 8.783 6.66 11.159 11.964.335.742.106 1.863-.161 2.717-.334 1.058-1.268 1.968-1.448 3.033-.625 3.7-1.547 7.458-1.386 11.16.148 3.447-.266 7.841 4.988 8.776.842.148 1.665 1.15 2.247 1.943 4.104 5.614 4.753 13.413-1.362 19.014-.445.408-.619 1.108-.977 1.782.916.075 1.59.137 3.076.26-.935 1.678-1.343 3.374-2.42 4.166-2.699 2.005-2.823 1.844-2.396 4.388 1.145-.73 2.575-2.358 3.881-2.271 1.38.092 3.41 1.59 3.813 2.884.792 2.568 1.268 5.545.748 8.126-.767 3.801-2.457 7.409-1.881 11.451.074.526-.402 1.114-.538 1.689-.489 2.093-1.789 4.457-1.238 6.246 1.497 4.883 3.788 9.531 5.576 13.827 4.104-.855 8.48-1.851 12.887-2.656 5.285-.965 10.466-.643 15.436 1.647 1.102.507 2.296 1.021 3.484 1.126 5.763.508 11.593.514 17.294 1.387 7.743 1.182 15.133 3.707 22.232 7.142 5.453 2.637 11.122 4.915 14.86 9.94 1.517 2.043 3.213 2.792 5.651 3.219 3.652.644 6.976 2.277 9.365 5.428.644.848 1.782 1.392 2.791 1.888 4.184 2.073 6.611 3.8 6.159 8.931-.359 4.06-.204 8.17-.724 12.199-.44 3.41-1.529 6.728-2.284 10.101-.105.464-.143 1.226.124 1.436 3.014 2.451 6.09 4.822 9.147 7.217l.675-.6c.384 1.869.823 3.726 1.145 5.607.495 2.878.495 5.93 1.541 8.579.489 1.231 2.953 1.665 4.512 2.488.619.328 1.226.687 1.795 1.089 7.762 5.509 13.932 12.447 18.865 20.58 4.667 7.687 7.508 15.999 9.13 24.788.557 3.014 1.225 6.004 1.844 9v16.711c-.619 3.286-1.139 6.591-1.875 9.853-2.086 9.191-4.921 18.061-11.314 24.826 2.376 7.21 5.087 14.093 6.826 21.217.923 3.788.972 8.195-.018 11.946-1.368 5.18-4.085 10.008-6.35 15.287 1.349-.73 2.506-1.467 3.757-1.999.625-.266 1.85-.446 2.036-.161.433.662.804 1.863.476 2.426-.804 1.393-1.85 2.748-3.094 3.757-3.126 2.526-6.45 4.81-9.606 7.291-.768.607-1.671 1.597-1.727 2.458-.656 10.07-1.541 20.152.396 30.204.143.755-.173 2.086-.712 2.389-1.665.947-3.583 1.436-5.329 2.265-6.474 3.064-12.917 6.19-19.007 9.117 2.519 6.889 4.648 13.369 7.248 19.664 3.373 8.182 2.525 16.711 2.172 25.104-.111 2.717-2.606 5.502-4.456 7.922-1.486 1.944-3.671 3.349-5.49 5.051-1.04.972-1.783 2.482-2.984 3.002-3.583 1.559-7.322 2.748-10.509 3.905 1.101 8.238 2.154 16.074 3.206 23.903l-1.244.632c-1.257-.879-2.513-1.764-3.305-2.315-5.527 3.404-10.906 7.155-16.668 10.163-11.085 5.793-23.167 8.758-35.273 11.58-.731.174-1.61.966-1.882 1.678a1176 1176 0 0 0-8.461 22.504c-.805 2.228-1.826 4.617-1.727 6.889.353 8.349 1.504 16.674 1.659 25.017.291 15.517-.068 31.046.13 46.569.241 18.779.65 37.557 1.263 56.323.216 6.697 1.015 13.4 1.968 20.042.693 4.827 1.002 9.34-3.095 13.14 1.306.786 2.414 1.485 3.559 2.123 1.485.829 3.051 1.522 4.5 2.414 3.596 2.222 6.09 4.914 7.78 9.253 3.181 8.145 8.566 15.442 11.648 23.612 6.722 17.807 12.441 35.985 18.81 53.928 5.663 15.95 11.58 31.813 17.54 47.658 3.089 8.214 6.536 16.285 9.742 24.454.378.96.687 2.451.217 3.138-1.919 2.798-4.153 5.379-6.765 8.666 1.12 3.757 2.476 8.498 4.036 13.177.179.532 1.832 1.182 2.283.91 3.547-2.123 3.596-2.173 5.831 1.343.81 1.275 1.751 2.506 2.315 3.887 3.237 7.934 6.715 15.795 9.463 23.897 4.06 11.945 8.108 23.953 9.563 36.579.161 1.374-1.294 2.934-2 4.404-1.107-.7-2.215-1.4-3.323-2.11-.452-.28-.904-.57-1.356-.86l.106.11c-.161-.78-.161-1.637-.508-2.324-.786-1.578-1.993-2.977-2.587-4.611-2.977-8.219-5.812-16.495-8.696-24.751-3.107-8.888-6.208-17.776-9.383-26.856l-9.538 12.992c-.984-.13-2.439-.316-3.893-.508l.594-.73c-1.046-1.207-1.95-2.575-3.163-3.572-1.863-1.528-3.856-2.946-5.954-4.116-1.157-.643-2.785-1.213-3.967-.909-5.942 1.516-11.81 3.342-17.702 5.038-1.374.396-3.912-1.548-3.243-2.464 1.708-2.327.037-4.666.464-6.981.415-2.247-1.089-3.138-3.132-2.73-2.859.57-5.663 1.412-8.51 2.055-8.269 1.888-16.631 2.928-25.067 1.523-2.897-.483-5.676-1.752-8.467-2.761-2.074-.749-2.451-4.209-5.515-3.54-.105.025-.712-1.021-.569-1.25.643-1.04 1.473-1.969 2.333-3.052-1.776-3.917-4.141-8.368-5.849-13.053-5.954-16.346-11.927-32.692-17.429-49.187-5.434-16.284-10.237-32.773-15.436-49.137-6.691-21.069-13.518-42.094-20.221-63.163-.303-.947-.235-2.21.124-3.144 1.887-4.902 3.911-9.748 5.911-14.607 3.224-7.83 6.461-15.659 9.692-23.483 2.358-5.428 4.71-10.862 7.068-16.29-.266-.111-.538-.229-.804-.34-2.278 5.323-4.562 10.639-6.84 15.962-6.635 15.597-13.27 31.188-19.892 46.785-.799 1.882-2.488 4.011-2.117 5.658 2.544 11.419 2.94 23.018 3.33 34.611.26 7.749.736 15.584-1.616 23.148-2.939 9.463-6.028 18.884-9.129 28.298-1.467 4.456-3.645 8.739-4.592 13.294-1.87 9.006-2.588 18.265-4.735 27.19-2.742 11.407-3.671 22.963-4.624 34.562-.786 9.507-1.374 19.051-2.618 28.502-.755 5.725-2.011 11.506-5.62 16.358-1.3 1.752-2.575 3.528-4.388 6.016h8.548c-3.924 3.671-8.381 1.641-12.156 2.458-.595 1.844-.533 4.778-3.374 3.794-10.064-3.504-20.041-7.279-29.944-11.215-2.036-.811-2.797-1.028-4.184 1.033-1.362 2.03-.371 2.866.811 3.757 4.172 3.144 5.639 6.932 4.097 12.144-1.85 6.257-3.101 12.696-4.753 19.016-1.219 4.64-2.476 9.29-4.079 13.82-2.377 6.71-4.84 13.42-7.724 19.93-1.653 3.74-4.741 6.87-6.183 10.66-1.201 3.17-2.984 4.75-5.973 5.61-1.653.48-3.683.79-4.723 1.93-1.689 1.86-3.039 1.63-5.05.84-2.092-.83-4.37-1.29-6.61-1.59-6.512-.86-13.122-1.15-19.546-2.41-15.301-3-29.561-9.16-43.314-16.22-11.283-5.79-22.232-12.36-32.797-19.38-5.354-3.56-10.008-8.49-12.026-15.18-.31-1.03-1.758-1.71-2.674-2.55v-3.09c3.2-4.943 6.295-9.957 9.662-14.778.934-1.343 2.537-2.47 4.072-3.076 1.733-.687 3.101.365 3.838 2.147.099.236.947.242 1.442.217 8.424-.384 16.847-.724 25.265-1.213 4.759-.279 9.593-.371 14.229-1.337 4.457-.928 8.839-2.569 13.01-4.425 11.092-4.946 21.05-11.618 29.344-20.586.594-.644 1.213-1.721 1.089-2.476-.501-3.076.291-4.741 3.132-5.843 4.172-1.621 7.984-.309 11.444 1.814 5.441 3.342 10.126 7.458 11.822 14.074.161.626 1.448 1.399 2.191 1.374 6.128-.179 11.122 2.464 15.808 5.973 1.789-5.756 3.59-11.555 5.638-18.153-10.386-7.031-21.303-14.421-32.252-21.836-1.764 4.14-3.386 8.201-5.212 12.168-1.516 3.286-3.082 3.584-5.762 1.603.452-2.884.811-5.638 1.33-8.356.508-2.673 1.183-5.316 1.783-7.972.068-.297.272-.687.161-.885-2.488-4.388.842-7.978 2.061-11.537 7.848-22.944 14.347-46.247 19.571-69.902 4.11-18.612 7.885-37.291 11.834-55.94.309-1.467.687-2.94 1.213-4.339 2.197-5.811-.074-11.376-1.535-16.692-2.655-9.625-2.018-18.989.675-28.267 5.087-17.498 10.441-34.927 15.888-52.319 4.066-12.992 8.708-25.804 12.62-38.838 4.617-15.387 8.597-30.966 13.115-46.384 2.946-10.057 6.332-19.985 9.557-29.956 1.918-5.93 3.911-11.828 5.836-17.757.18-.564.099-1.207-.477-2.024-3.905 10.002-7.817 20.004-11.963 30.618-5.039-13.01-9.798-25.401-14.706-37.73-.39-.978-1.74-1.807-2.829-2.216-2.216-.835-4.555-1.361-6.858-1.974-2.711-.73-3.249-2.631-3.342-5.199-.192-5.274-.78-10.535-1.089-15.808-.149-2.531-.025-5.075-.025-8.089-2.037-.935-4.655-2.092-7.242-3.33-2.011-.966-4.283-1.82-2.896-5.397 1.33.266 3.07.29 4.481.978 2.234 1.083 4.264 2.605 6.362 3.961 3.652 2.358 4.11 6.35 4.772 10.057.768 4.296 1.034 8.678 1.498 12.825 5.583 1.646 11.215 3.311 17.751 5.236 0-4.425.236-8.696-.061-12.936-.359-5.174-1.566-10.305-1.709-15.479-.582-21.081-1.238-42.175-1.176-63.262.031-10.856 1.517-21.7 2.327-32.556.434-5.787.817-11.587 1.263-17.374.384-5.013.675-10.045 1.325-15.027.161-1.232 1.405-3.033 2.457-3.275 1.819-.42 3.324.26 3.732 2.916 1.535 9.971 1.529 19.923.594 29.919-.285 3.045-.396 6.109-.699 9.148-1.832 18.296-1.975 36.647-1.968 55.011 0 5.83.037 11.661.061 17.491 0 1.25.174 2.525.013 3.757-.421 3.157 1.621 3.163 3.781 3.163 8.969-.012 17.937.068 26.906-.037 7.798-.093 15.597-.266 23.389-.625 6.734-.31 13.45-.935 20.301-1.43-1.107-5.168-2.376-10.305-3.28-15.504-1.331-7.644-2.612-15.313-3.534-23.019a492 492 0 0 1-2.439-26.472c-.365-5.632-.142-11.308-.142-16.959 0-6.684-.093-13.375.124-20.053.068-2.061-.539-4.846 3.039-5.83-5.069-5.521-9.99-10.956-15.003-16.316-3.454-3.695-7.855-5.564-12.812-6.245-.285-.037-.545-.254-.817-.383-5.187-2.396-10.603-3.324-16.315-2.742-1.368.142-2.81-.316-4.209-.576-5.657-1.052-9.334 2.117-12.936 5.775-.953.965-2.674 1.312-4.116 1.627-11.388 2.513-22.752 5.125-34.202 7.322-4.878.935-9.922 1.09-14.904 1.337-6.871.347-13.753.458-20.63.644-1.101.031-2.215-.087-3.62-.155l-5.552 11.841c11.766 4.673 20.808 12.96 30.755 19.905 2.172-6.58 1.677-14.069 7.204-19.744 2.445 4.054 1.121 7.718.334 11.103-1.417 6.109-3.701 12.02-5.162 18.123-2.085 8.727-3.608 17.59-5.638 26.329-2.439 10.473-4.89 20.958-7.885 31.281-1.22 4.184.6 7.025 2.451 9.978 2.964 4.747 6.344 9.234 9.438 13.901.65.984.848 2.272 1.251 3.423-.273.198-.545.402-.817.6-2.253-1.615-4.884-2.897-6.685-4.92-4.023-4.531-7.854-9.272-11.357-14.217-3.547-5.008-3.435-10.479-1.715-16.377 2.785-9.538 4.71-19.324 7.335-28.917 1.813-6.635 4.184-13.122 6.313-19.67.21-.65.452-1.287.736-2.092-12.533-5.082-23.773-12.187-34.592-20.023-1.764-1.275-2.327-5.069-.916-7.842 1.801-3.528 3.775-6.963 5.935-10.918-2.512-1.572-5.223-3.261-7.928-4.97-3.93-2.475-7.823-5.007-11.797-7.402-.699-.421-1.745-.235-2.618-.384-4.599-.78-9.185-1.745-12.342-5.558-1.089-1.318-1.566-3.163-2.265-4.791-.551-1.268-.774-2.754-1.56-3.837-3.163-4.326-4.252-9.148-3.039-14.601-5.341-3.169-6.43-6.82-2.63-12.88 2.265-3.614 3.125-7.291 3.472-11.283.229-2.649 1.479-3.862 4.302-3.386-.737-1.535-1.374-2.872-2.018-4.208-6.412 2.197-10.2-2.222-11.382-6.078-1.288-4.197 1.157-6.945 6.975-8.096-3.002-4.698.142-7.774 2.791-11.073.681-.854.632-2.296 1.313-3.144 1.194-1.492 2.698-2.736 4.431-4.438-2.544-7.532-5.323-15.999-8.318-24.398-.564-1.579-2.105-2.779-2.971-4.277-.941-1.64.526-5.694 2.166-6.004 2.426-.452 3.67 1.04 3.98 3.2.229 1.597.018 3.262.012 4.896 0 1.12-.278 2.333.062 3.342 2.383 7.068 4.883 14.099 7.359 21.137 1.034 2.94 5.342 4.017 7.7 2.092 7.396-6.035 15.975-9.495 25.29-11.191 3.175-.575 6.418-1.231 9.618-1.182 8.696.136 17.182 1.541 25.971 5.954 0-5.093.489-9.785-.118-14.322-.867-6.462.34-12.595 1.869-18.704.372-1.479 1.925-3.014 3.342-3.807 2.891-1.615 4.952-3.676 5.614-6.95.514-2.525 4.413-4.011 2.166-7.527-.352-.557 1.077-2.252 1.851-3.756-2.197-4.277-3.138-9.124-.105-14.007.495-.798 1.244-1.554 2.055-2.018 5.205-2.989 10.46-5.892 15.9-8.931-5.855-7.074-10.206-14.273-11.902-23.024-4.351-.706-6.004-2.68-6.326-7.248-.297-4.215-.866-8.412-1.454-12.602-.26-1.857-6.028-6.523-8.077-7-.582-.136-1.306-.928-1.442-1.535-1.956-8.516-3.955-17.027-5.645-25.599-.866-4.407-1.145-8.925-1.69-13.4q.593-.223 1.195-.446c.557.65 1.43 1.22 1.628 1.968 2.141 7.941 4.289 15.882 6.158 23.885.458 1.968 1.3 2.086 2.891 1.999 2.735-.154 5.514-.229 8.553 2.464-3.559.761-6.381 1.361-9.847 2.098 1.009 1.782 1.943 3.8 3.212 5.583 1.343 1.9 3.008 3.571 4.512 5.36.254.297.341.91.613.99 4.599 1.312 2.909 5.038 3.163 8.034.198 2.333-.211 5.1.916 6.87 1.083 1.702 3.744 2.451 5.799 3.448 1.17.569 2.507.786 3.763 1.163-1.002.947-1.999 1.888-2.995 2.835-.223.21-.433.439-.842.86 1.943 3.596 3.912 7.304 5.954 10.968.613 1.101 1.25 1.522 2.884 1.095 2.693-.705 5.614-.563 8.95-.811-1.758 3.337-4.821 3.696-7.835 4.76 6.498 5.991 13.573 9.755 22.523 7.607 6.882-1.653 13.684-3.627 20.48-5.632 1.492-.44 2.779-1.591 4.153-2.408 1.504 2.389 1.053 3.707-2.451 6.771-1.838 1.609-3.769 3.113-5.681 4.692 1.039.625 2.29 1.138 3.23 1.986 5.41 4.871 11.779 5.02 18.024 2.847 9.191-3.193 18.159-7.037 27.134-10.819 1.721-.724 3.033-2.413 5.162-4.177-1.386 4.827-3.516 8.102-7.161 10.237-7.991 4.673-16.229 9.092-25.438 10.441-6.858 1.003-14.125 1.529-20.122-3.453-1.671-1.387-3.02-3.157-4.593-4.828-1.293.6-2.927 1.355-4.567 2.111l.885-.025c.018 3.156.582 6.424-.044 9.451-3.051 14.867-6.653 29.628-9.575 44.52-1.77 9.012-2.791 18.184-3.868 27.32-.761 6.449-1.046 12.954-1.541 19.441l-.897.241c-.44-1.894-1.152-3.763-1.276-5.675-.352-5.329-.792-10.683-.581-16.006.229-5.954.947-11.915 1.788-17.819 1.288-9.024 2.538-18.08 4.389-26.992 2.321-11.191 5.242-22.257 7.897-33.361-8.615 3.726-16.767 1.597-23.73-4.042-5.224 3.646-10.088 7.384-15.306 10.553-3.423 2.08-5.224 4.116-4.803 7.929.08.724.718 1.677 1.362 1.993 2.958 1.454 5.991 2.76 9.036 4.029 1.127.47 2.433.545 3.522 1.077 1.003.489 2.203 1.164 2.649 2.08 1.739 3.571 3.175 7.285 4.821 10.905.26.57 1.164.824 1.498 1.387.533.903 1.3 2.024 1.145 2.915-.885 5.057-1.696 10.163-3.144 15.065-1.393 4.704-3.744 9.123-5.261 13.796-.848 2.606-1.095 5.471-1.213 8.238-.378 8.814-.582 17.634-.811 26.453-.056 2.235-.377 4.147-3.645 4.017.897.465 1.572.644 2.011 1.065 2.383 2.284 4.686 1.126 7.18.13 3.955-1.578 7.947-3.274 12.081-4.097 2.099-.415 4.698.662 6.834 1.603 9.29 4.091 18.493 8.38 27.802 12.626.353-2.891 3.076-2.73 5.187-2.668 6.418.192 12.837.65 19.23 1.282.805.08 1.442 1.844 2.495 3.292 4.654-.681 10.435-1.027 15.919-2.469 5.273-1.387 10.15-4.234 15.393-5.787 2.37-.706 5.682-.687 7.755.464 8.238 4.586 16.191 9.692 24.188 14.712 7.235 4.543 14.39 9.216 21.539 13.802-1.176 2.804-3.206 3.844-5.521 2.792-14.632-6.66-29.758-12.292-43.493-20.821-.612-.378-1.33-.656-1.819-1.158-3.689-3.769-7.687-2.135-11.754-.854-2.705.854-5.471 1.671-8.275 2.024-3.732.47-7.526.495-11.296.662-.996.044-1.999-.093-3.032-.148-.341 5.805-.694 11.871-1.053 17.93l-.903.112c-.434-1.3-1.034-2.569-1.263-3.9-.359-2.098-.953-4.332-.576-6.344.687-3.676-1.708-5.929-3.181-8.634-.223-.408-.829-.755-1.306-.842-4.011-.718-8.034-1.367-11.822-2.005-.136 16.074-1.275 31.423-12.094 43.443 4.741 1.591 9.792 3.342 14.898 4.939.724.229 1.999-.018 2.495-.544 4.864-5.131 9.587-10.392 14.427-15.542.681-.724 1.764-1.064 2.798-1.652 1.039 4.536.761 6.523-12.323 23.08a139.3 139.3 0 0 1 23.049 24.856c.934 1.294 1.46 3.206 1.417 4.816-.062 2.24.737 3.311 2.736 4.047a172 172 0 0 1 10.726 4.37c.842.378 1.374 1.436 1.993 1.572 3.714.533 7.483.83 11.135 1.64 6.734 1.498 13.393 3.299 20.09 4.952.539.13 1.182.291 1.659.118 11.97-4.283 24.454-6.301 36.926-8.307 5.508-.885 11.128-1.07 16.625-2.011 1.986-.341 3.75-1.975 5.632-2.983 10.082-5.379 19.979-11.166 30.34-15.95 5.453-2.52 9.297-5.404 10.207-11.537.687-4.593 1.955-9.117 2.302-13.722.198-2.618-.668-5.422-1.523-7.985-1.757-5.242-3.763-10.404-5.812-15.547-.612-1.548-1.77-2.866-2.543-4.358-.39-.755-.458-1.664-.687-2.5-.768-2.798-1.523-5.595-2.321-8.38-2.724-9.476-5.676-18.897-8.139-28.441-2.21-8.566-3.894-17.268-5.769-25.71-1.207.879-3.094 2.29-5.026 3.651-11.568 8.152-25.797 4.822-32.952-6.616-2.909-4.654-3.237-9.872-2.717-15.393.681-7.223 3.776-12.954 9.049-17.547 4.221-3.676 9.098-6.01 14.929-6.455 4.747-.359 9.011.588 13.202 2.853-.415-5.67-.824-11.178-1.282-17.436-3.738-2.017-8.262-4.32-12.657-6.857-6.505-3.757-12.682-7.954-17.126-14.224-.291-.414-1.058-.779-1.547-.717-5.385.674-10.708 1.751-15.467 4.413-1.077.6-1.436 2.68-1.907 4.153-3.026 9.482-6.189 18.921-8.894 28.489-1.566 5.521-2.791 11.215-3.404 16.916-1.151 10.695-2.358 21.446-2.414 32.178-.056 10.547 1.479 21.063 3.794 31.424.7 3.119.706 6.393.452 9.835-.557-1.083-1.114-2.173-1.882-3.664-.427 2.135-.798 3.979-1.163 5.83-.186.279-.378.557-.563.842l1.095-.427h10.497c-1.72-4.147.706-6.177 3.732-7.83 11.686-6.363 23.378-12.707 35.113-18.983.557-.297 1.529.174 2.308.285-.229 1.405.031 3.274-.779 4.122-1.56 1.634-3.677 2.779-5.651 3.98a4933 4933 0 0 1-27.939 16.742c-1.096.65-2.327 1.071-3.745 1.715 4.76.829 9.235 1.448 13.642 2.414 12.186 2.673 23.216 7.879 32.791 15.894 1.813 1.516 2.958 3.85 4.332 5.861.26.378.13 1.021.254 2.265-9.265-9.333-20.307-13.542-31.993-15.875-9.377-1.876-18.982-2.606-28.489-3.85-1.498-.198-3.12-.13-4.457-.712-1.083-.464-2.723-1.919-2.574-2.587.891-3.98-3.163-5.502-3.912-8.647-.768-3.212-1.814-6.412-3.206-9.401a94.5 94.5 0 0 1-7.378-23.322c-2.767-15.417-2.884-30.971-2.241-46.476.471-11.302 2.34-22.56 7.254-33.398-5.465.879-10.645 1.709-15.461 2.482-.185-.854-.489-2.228-.792-3.602l-.866.186c-1.919 10.819-2.458 21.706-1.783 32.673.569 9.204.984 18.414 1.609 27.617.378 5.521-.445 10.281-4.586 14.626-3.342 3.503-5.942 7.916-8.059 12.311-1.763 3.658-2.29 7.891-3.484 11.84-.273.904-1.034 1.665-1.572 2.494-.341-.117-.675-.241-1.015-.359.346-4.697.513-9.42 1.108-14.081.321-2.519.903-5.236 2.215-7.334 2.259-3.615 4.964-7.025 7.892-10.144 3.169-3.38 4.171-6.549 2.674-11.284-3.157-9.995-4.42-20.363-4.636-30.916-.192-9.457.965-18.698 2.779-27.876.495-2.52 2.401-4.816 3.881-7.075.878-1.337 2.184-1.219 3.54-.291.736.502 1.82.91 2.655.786 6.152-.928 12.28-2.055 18.426-3.026 9.364-1.48 18.747-2.891 28.124-4.314.403-.062.898-.167 1.226 0 4.326 2.228 7.464-1.517 11.45-2.253-4.58-1.09-6.492-3.794-5.979-8.344.372-3.329-3.249-7.179 1.35-9.958-2.47-6.877-9.086-7.489-14.644-9.043-10.293-2.878-20.809-4.97-31.572-7.464-1.133 5.087-2.136 9.568-3.126 14.05-.452 2.061-.737 4.171-1.356 6.183-.798 2.605-2.253 4.679-5.477 4.722v-29.678c-2.668-2.284-6.79-1.974-10.59-2.073-3.813-.105-7.65.73-12.435 1.256 1.368 1.145 2.167 1.826 2.984 2.488 2.42 1.987 5.025 3.794 7.167 6.041.767.805.928 2.841.52 4.029-4.135 12.107-8.504 24.133-12.682 36.227-1.733 5.013-3.274 10.095-4.679 15.207-.526 1.913-.366 4.011-.601 6.01a3499 3499 0 0 1-2.909 24.139c-.637 5.106-1.528 10.181-1.999 15.3-.972 10.565-1.739 21.155-2.587 31.714-2.482-.285-2.668-.26-2.99-2.866-.73-5.935-1.664-11.883-1.788-17.844-.173-8.417-.124-16.884.643-25.252.861-9.408 2.612-18.735 4.017-28.094.266-1.776.415-3.664 1.17-5.236.601-1.25 2.086-2.067 3.107-3.144.57-.601 1.201-1.269 1.455-2.024 4.029-12.069 7.996-24.151 11.976-36.233.953-2.903 1.882-5.812 2.823-8.714-.434.154-.861.309-1.294.47-1.226-.959-2.531-1.838-3.664-2.903-1.281-1.207-3.318-2.494-3.441-3.887-.483-5.49-3.918-9.773-5.41-14.805-.186-.631-.427-1.25-.761-2.197-2.798 2.148-4.667 5.892-8.87 4.611-1.275-.39-2.438-1.12-3.986-1.85 6.363-2.21 8.814-7.044 10.788-12.274.316-.829.595-1.739.558-2.606-.013-.346-.916-.65-1.412-.984q1.364-4.947 2.717-9.884l.725.185q-.763-1.242-1.517-2.475c1.077.476 2.142.947 3.621 1.597 2.395-1.319 2.364-4.729-.402-6.611-.471.885-.892 1.795-1.418 2.637-.526.848-1.151 1.64-1.726 2.457-1.257 1.486-2.513 2.977-3.77 4.463.105.297.217.6.322.897l-4.896-.681c-.229.359-.91 1.424-1.671 2.625 1.838-.093 3.349-.174 4.859-.248.068.359.13.712.198 1.071-1.12.544-2.241 1.095-3.175 1.547l2.191 3.522c1.702-.508 2.847-.848 3.998-1.188zM469.982 277.182c-.712-.111-1.424-.223-2.136-.328-.674-.489-1.281-1.207-2.036-1.436-9.637-2.909-19.366-3.491-29.381-2.012-8.993 1.331-17.033 4.735-24.77 9.291 1.696-.019 3.404-.075 4.983-.551 3.274-.984 6.709-.687 9.804-3.367 2.958-2.556 7.563-3.986 11.531-1.919 3.082 1.603 5.985 1.003 8.956.922 7-.191 13.994-.662 21.006-1.033.502.284.997.563 1.498.848 8.164 9.278 16.334 18.562 24.931 28.335-3.633-13.982-11.568-23.446-24.386-28.75m222.341 234.682c-.155.007-.378-.031-.557.031-11.556 4.24-23.118 8.492-35.367 10.306-2.469.365-5.069-.167-8.077-.31 1.046-2.915 2.587-4.017 4.673-4.512 2.346-.551 4.754-.922 7.044-1.64 15.288-4.797 30.569-9.618 45.795-14.613 1.232-.402 2.259-2.049 2.965-3.342 1.782-3.25 2.754-7.131 5.106-9.841 3.584-4.135 3.899-8.727 2.55-13.184-2.408-7.941-5.806-15.585-8.572-23.427-2.321-6.579-4.543-13.208-6.4-19.929-1.219-4.42-1.715-9.037-2.587-13.858-12.75 2.865-25.798 5.793-39.68 8.912 5.873 2.779 9.389 6.74 12.527 11.29 2.08 3.014 3.045 6.214 2.977 9.63-.087 4.432-.916 8.845-1.114 13.277-.347 7.674-.464 15.362-.65 23.043-.043 1.751.118 3.515-.037 5.254-.074.861-.656 1.678-1.003 2.513l-1.219-.241c-.489-9.773-.984-19.552-1.461-29.325-.223-4.611-.402-9.223-.637-13.827-.025-.465-.161-1.071-.477-1.344-3.423-2.933-6.474-6.696-10.423-8.541-9.841-4.599-20.084-8.349-30.192-12.379-1.838-.73-4.481-2.228-5.564-1.535-2.513 1.616-4.233.335-6.263-.303-1.282-.402-2.563-.792-4.011-1.238 0 13.945-.118 27.623.074 41.296.056 3.93.749 7.897 1.597 11.753 1.294 5.88 3.082 11.649 4.388 17.522.223 1.016-.934 2.334-1.454 3.51-.916-.6-2.235-.984-2.693-1.838-5.811-10.795-8.788-22.511-9.828-34.587-.842-9.773-.644-19.645-.694-29.473-.018-3.714.582-7.434.916-11.352-1.405-.581-2.946-1.386-4.586-1.856-5.372-1.529-7.699-6.078-7.866-10.591-.229-6.047-5.138-7.885-7.62-12.366 1.04 12.348 2.13 23.972 2.978 35.608.767 10.491 1.021 21.025 1.961 31.491.898 10.008 2.272 19.979 3.658 29.932 2.154 15.424 6.846 30.155 12.769 44.508.322.78.935 1.479 1.547 2.079 1.127 1.096 2.625 1.907 3.491 3.169 1.826 2.662 3.244 5.608 5.051 8.282.464.687 1.887 1.324 2.649 1.132 10.317-2.649 20.579-5.496 30.885-8.201 12.985-3.404 25.772-7.365 37.941-13.096 3.132-1.473 6.115-3.268 9.135-4.902-1.157-4.085-2.401-8.486-3.645-12.899zm-296.44 494.746c-.174.4-.347.81-.527 1.22-1.652-.54-3.651-.66-4.908-1.69-9.308-7.593-20.74-8.868-31.881-10.892-5.478-.996-11.054-1.522-16.606-1.987-2.167-.179-4.902-.309-6.499.799-3.2 2.222-5.799 5.31-9.166 8.55 1.318 0 1.664.09 1.924-.01 5.664-2.38 10.708-1.08 15.585 2.29 6.542 4.51 13.054 9.1 19.868 13.18 9.377 5.62 19.076 10.71 28.515 16.22 3.113 1.82 6.084 3.27 9.847 3.1 2.271-.11 4.797.21 6.839 1.15 4.24 1.93 8.585 3.96 12.255 6.77 5.824 4.46 11.964 8.13 18.983 10.19 5.96 1.75 8.009.64 10.949-4.68 1.665-3 3.856-5.7 5.75-8.59.563-.86 1.157-1.82 1.331-2.8.742-4.27.897-8.7 2.054-12.85 3.887-13.93 6.041-28.404 12.794-41.111-4.153-3.045-8.195-6.065-12.292-8.999-3.361-2.408-5.057-2.34-7.372-.328-.91.786-2.24 1.089-3.379 1.609-.563-1.325-1.758-2.754-1.554-3.949.483-2.897-.761-5.174-2.575-6.66-3.329-2.723-6.956-5.279-10.843-7.093-4.228-1.974-7.174-.551-9.823 3.46a23 23 0 0 1-2.042 2.68c-3.262 3.639-6.561 7.248-9.693 10.695 6.425 1.74 12.917 3.497 19.404 5.249l.056.972c-.774.495-1.634 1.516-2.315 1.405-6.45-1.04-12.893-2.154-19.286-3.497-2.52-.533-4.581-.471-6.406 1.689 2.432 1.95 7.761.7 6.597 6.753-3.658-.557-7.167-.928-10.596-1.671-2.68-.582-4.939-.421-7.483.91-6.071 3.169-12.552 5.087-19.54 4.685-.581-.031-1.175.235-2.042.427 4.543 1.807 8.869 3.101 12.769 5.193 3.979 2.131 7.544 5.051 11.289 7.621zm81.254-685.521c-5.614-10.949-11.624-22.665-17.479-34.078-20.809 2.321-41.729 4.66-62.816 7.012 2.21 6.976 4.487 14.149 6.883 21.694 2.438.668 5.638 1.232 8.578 2.432 5.558 2.266 10.992 4.847 16.408 7.452.749.359 1.51 1.628 1.467 2.42-.043.743-1.04 1.696-1.838 2.068-2.16.984-4.438 1.708-6.982 2.649.551 1.064.891 2.147 1.566 2.94 2.123 2.476 4.345 4.877 6.586 7.248 2.587 2.735 2.797 5.025.786 8.355-.316.526-.186 1.318-.291 2.185l-4.94-.798 11.655 25.549c22.096-.433 43.654-1.621 65.335-6.876-2.42-4.834-4.636-9.625-7.186-14.229-1.417-2.557-2.766-5.317-5.799-6.604-2.637-1.121-3.782-3.411-4.314-6.128-.297-1.523-.823-2.785-2.897-2.903-.934-.056-2.16-1.151-2.618-2.086-1.034-2.11-1.677-4.406-2.599-6.963-3.46.7-4.531-2.723-4.277-4.988.241-2.117 2.859-3.968 4.759-6.344zm26.36 31.962c-.161.483-.328.966-.489 1.449 1.387.872 2.687 2.327 4.166 2.525 7.446 1.021 14.941 1.708 22.411 2.525 3.621.396 7.236.873 10.863 1.195 1.919.167 4.815.891 5.601-.037 2.074-2.47 5.416-4.345 5.063-8.529-.247-2.903.173-5.899.588-8.808.916-6.493 1.999-12.954 3.051-19.428.273-1.69-.594-2.321-2.048-2.705-9.142-2.402-18.271-4.865-27.419-7.26-1.764-.464-3.664-1.189-5.373-.929-3.057.458-6.077 1.399-9.005 2.451-11.147 4.005-22.245 8.139-33.361 12.224-.012.285-.031.57-.043.855 6.041 1.609 12.137-.452 18.153-.904 6.153-.458 12.255-1.653 18.376-2.525.062.371.13.749.192 1.12l-30.587 7.297c1.132 1.288.105 4.339 3.577 4.37 7.068.068 14.137.34 21.205.588 4.196.148 8.393.316 12.577.656 1.547.124 3.051.755 4.574 1.151l-.118 1.052c-12.069.625-24.139 1.257-36.938 1.919.978 1.021 1.659 2.42 2.531 2.544 10.794 1.591 21.62 2.965 32.42 4.475 1.838.26 3.633.879 5.447 1.337-.099.464-.198.934-.291 1.399h-25.11zm219.989-120.408c.303 3.107.532 5.942.873 8.764.996 8.344 2.086 16.675 3.051 25.018.551 4.741.656 9.55 1.455 14.242 1.145 6.721 2.772 13.362 4.122 20.047.718 3.553.835 7.303 2.03 10.677 2.042 5.768 4.729 11.308 7.105 16.866 17.993-24.015 9.538-76.433-18.63-95.62zM493.18 294.419c.358-5.737.216-10.713 1.083-15.498 1.188-6.585 2.5-13.078 2.401-19.849-.055-3.887.935-7.799 1.535-11.686.675-4.314 3.194-8.479.854-13.022-.773-1.504-1.071-3.287-1.98-4.685-.954-1.467-.099-4.29-2.798-4.389-2.897-.105-2.637 2.693-3.231 4.382-1.51 4.29-3.565 8.059-7.402 10.745-.898.631-1.529 1.882-1.894 2.971-1.151 3.485-1.993 7.068-3.188 10.534-2.203 6.4-4.574 12.744-6.889 19.15 9.402 4.673 16.452 11.587 21.509 21.341zm210.116-44.804c3.256 1.72 4.537 4.586 4.246 8.046-.21 2.55-1.59 4.567-4.332 5.081-4.11.768-8.746.916-11.513-2.079-3.329-3.603-6.071-1.059-9.191-1.127 1.065 5.329 2.785 9.092 5.032 10.9 9.792 7.879 24.479 5.731 31.869-2.94.644-.755.594-2.105.768-2.786-2.012.31-3.943 1.238-4.902.632-2.773-1.752-3.776-.861-4.587 1.85-1.002 3.343-2.215 3.807-5.341 2.402-1.349-.607-2.686-1.25-4.042-1.882-.359.57-.569.91-.78 1.251-.656 1.07-1.312 2.147-1.968 3.218-.278-1.337-.606-2.668-.817-4.011-.074-.47 0-1.064.236-1.473 1.064-1.819 1.832-4.091 4.796-2.141 1.362.897 3.194 1.07 5.045 1.64.575-1.331.891-2.779 1.733-3.788.711-.854 2.562-1.95 2.995-1.64 1.678 1.188 3.262 2.117 4.977.575 1.516-1.367 2.215-3.181 1.9-5.421-.842-6.01-1.504-12.051-2.253-18.222-.997-.229-2.235-.303-3.287-.78-2.853-1.287-4.035 0-5.149 2.544-1.504 3.423-3.51 6.623-5.428 10.157zm-34.549 692.584c5.193-1.38 9.848-3.107 15.288-2.934 6.437.211 8.362 5.589 12.707 8.709 2.37-3.466 4.735-6.932 6.79-9.947-4.283-4.716-5.955-10.497-8.35-15.201-9.191 4.785-18.382 9.569-27.759 14.453.371 1.386.86 3.193 1.324 4.908zM496.045 314.238c-9.179-11.432-18.364-22.882-27.759-34.586-2.055 2.085-3.664 3.719-5.137 5.211 6.369 11.853 12.62 23.482 18.852 35.088 4.853-1.975 9.563-3.887 14.038-5.713zm-70.367 35.997c1.145-3.707-.544-5.954-2.55-8.12-1.529-1.647-3.175-3.244-4.407-5.1-1.157-1.74-2.587-2.439-4.549-2.897-6.257-1.461-13.029-.922-18.84-5.218-.341 2.779-.755 5.063-.817 7.36-.019.736.724 1.912 1.399 2.191 9.878 3.992 19.805 7.866 29.77 11.79zm-3.466 1.913c-9.061-2.247-18.407-4.568-27.716-6.877 1.114 4.884 4.518 8.071 8.925 10.528 4.19 2.34 8.313 4.816 12.354 7.409 1.04.669 1.64 2.012 2.439 3.045-.173.254-.341.508-.514.755l-6.27-.631-.074.446c3.689 1.417 7.372 2.834 11.716 4.506a3960 3960 0 0 0-3.435-7.137c1.412-.928 2.569-1.69 3.318-2.178-.266-3.535-.508-6.759-.743-9.866m260.721-96.499c4.84-1.473 9.464-2.544 12.565-6.697.52-.693 2.185-.476 3.292-.798.898-.26 2.167-.446 2.538-1.083 1.981-3.448 3.726-7.025 5.564-10.584-9.284-.848-21.266 7.439-23.959 19.162m-286.431 62.55c-.954 3.2 1.176 4.023 3.459 4.865 5.206 1.919 10.467 3.751 15.542 5.979 2.148.947 3.522.606 5.05-.842.811-.767 1.783-1.362 2.55-1.943-8.293-5.837-17.286-7.409-26.601-8.059M594.097 80.428c-1.813-3.373-1.77-3.342-4.103-.377-.885 1.126-1.839 2.475-3.07 2.995-3.961 1.671-3.213 4.754-2.897 7.984 1.981 0 3.943-.402 5.645.087 3.324.947 5.199.118 6.381-3.497.706-2.154-.625-3.88-3.905-4.543.693-.94 1.268-1.72 1.949-2.649M397.758 291.362c11.327-1.442 22.418-2.847 33.429-4.246-1.467-.829-2.736-1.578-4.029-2.278-.502-.272-1.084-.699-1.573-.631a354 354 0 0 0-11.673 1.801c-1.541.266-3.348.353-4.493 1.226-2.21 1.683-4.283 2.698-7.118 1.85-1.962-.588-3.621.099-4.543 2.278m38.541-4.679c5.694-.539 11.382-1.071 16.594-1.56-1.281-1.04-2.798-2.265-4.314-3.491-4.778-1.392-7.978 3.014-12.28 5.051m79.404 79.774c-.068-.204-.13-.408-.198-.612-4.048-.563-8.096-1.127-12.837-1.789 1.232 2.494 2.253 4.562 3.509 7.099 3.287-1.621 6.406-3.163 9.52-4.704zm1.108 184.19c.21.384.427.761.637 1.145 5.385-2.971 10.776-5.935 16.161-8.906-.186-.335-.372-.663-.551-.997-5.695 2.42-11.81 4.079-16.247 8.758m-65.577-270.513c2.278.836 4.618 1.195 3.664 4.234 4.63 1.665 6.809-1.467 9.136-4.234h-12.806zM389.997 307.2l-.093 1.053c1.609.711 3.218 1.417 4.827 2.129.155-.266.31-.539.458-.805-.922-2.89-1.844-5.781-3.014-9.47-1.306 2.185-2.172 3.64-3.218 5.391 1.547.155 2.426.242 3.614.359-1.077.57-1.826.96-2.568 1.35zm38.38-25.574c3.404 1.875 8.485 1.058 11.679-1.677-4.19-1.771-7.91-.7-11.679 1.677m47.745 789.704c-.824-.77-2.179-1.92-.099-2.32 2.376-.46 4.902-.11 7.668-.11-1.485.94-2.667 1.69-3.85 2.43z" fill="#000"/>
  <path d="M494.3 478.491c-.483-1.411-1.226-2.791-1.405-4.239-.929-7.657-1.9-15.313-2.495-23-.81-10.472-1.281-20.97-1.906-31.454-.408-6.821-.891-13.642-1.207-20.475-.161-3.534-.031-7.081.495-10.664 3.293 2.903 3.467 6.721 3.776 10.386.848 10.156 1.541 20.326 2.209 30.495.112 1.745-.284 3.515-.297 5.273-.037 7.464-.198 14.935.038 22.387.222 6.988.897 13.963 1.374 20.939-.192.111-.39.229-.582.34zm151.683-101.945c-15.535 2.321-29.889 8.628-45.257 11.896-.427-2.556 1.263-3.973 3.38-4.691 7.012-2.396 14.037-4.766 21.155-6.803 5.391-1.541 10.998-2.333 16.396-3.862 4.827-1.374 7.971-.309 11.023 3.986 2.971 4.172 7.285 7.378 10.936 11.085.644.65.923 1.665 1.368 2.513-.953.118-2.067.625-2.828.297-6.784-2.896-13.109-6.387-16.167-14.415zM675.5 351.33c3.132 4.246 5.979 8.486 9.216 12.404 4.933 5.967 10.107 11.735 15.269 17.51.768.86 1.974 1.386 3.058 1.9 2.24 1.071 4.351.91 5.793-1.325 1.683-2.605 1.139-4.933-1.139-6.758a736 736 0 0 1-13.357-11.005c-.885-.743-1.652-1.696-2.234-2.693-.39-.662-.681-2.147-.464-2.271.811-.452 1.956-.842 2.785-.6.997.297 1.869 1.182 2.68 1.943 3.961 3.726 7.836 7.539 11.822 11.234 3.447 3.194 3.973 6.332 1.714 9.928-2.178 3.472-6.492 4.71-10.8 2.785-5.886-2.625-10.107-7.298-14.118-11.958-3.584-4.159-6.338-9.055-9.253-13.753-2.111-3.41-2.043-4.072-.972-7.347zM561.814 178.74c.074-1.071-.155-2.278.266-3.194 4.338-9.575 8.72-19.131 13.257-28.619.638-1.337 2.154-2.247 3.268-3.355.495 1.702 1.671 3.534 1.374 5.088-1.819 9.599-6.325 17.949-12.676 25.333-1.435 1.671-2.859 3.348-4.289 5.019-.402-.093-.804-.179-1.2-.272m-38.009-50.741c-5.856.706-10.937 1.288-16.006 1.944-2.587.334-5.15.91-7.749 1.157-.706.068-1.492-.668-2.241-1.039.403-.762.613-1.839 1.25-2.241 5.23-3.324 10.987-5.199 17.176-4.506 2.612.291 5.502 1.25 7.576 4.685zm182.456 88.341c-14.693 7.947-29.381 15.895-44.074 23.842l-.687-.669c.835-.879 1.522-2.03 2.537-2.587 8.368-4.599 16.767-9.154 25.228-13.579 4.326-2.266 8.801-4.252 13.233-6.32 1.126-.526 2.333-.866 3.509-1.293.087.204.167.408.254.613zM599.724 361.599c-.13-1.405-.62-2.693-.279-3.714 3.262-9.841 4.512-19.942 4.159-30.396 2.643-.297 3.027 1.418 3.095 3.175.384 9.65-1.207 18.958-4.958 27.871-.377.898-.885 1.745-1.343 2.612-.043.08-.161.111-.674.452m-93.169-220.862c1.461 1.046 2.921 2.092 4.363 3.12 4.339-.291 8.826-.595 14.155-.96-2.834 3.689-5.886 5.527-9.544 6.152-2.104.359-4.332.137-6.486-.006-.588-.037-1.442-.656-1.628-1.2-.73-2.117-1.244-4.308-1.838-6.468.328-.217.656-.427.984-.644zm35.298-33.07c5.378.762 12.645 7.26 13.4 11.63-4.37-3.794-8.597-7.458-13.4-11.63m13.233-5.793 9.358-4.258c-1.133 3.701-6.864 6.443-9.358 4.258" fill="#000"/>
  <path d="m570.243 716.132-.575-.668c2.278-5.323 4.561-10.64 6.839-15.962.266.111.538.229.805.34-2.359 5.428-4.71 10.862-7.069 16.29" fill="#fff"/>
  <path d="M729.83 1001.35c-.811 1.98-1.194 4.31-2.494 5.87-9.241 11.11-21.186 19.07-32.668 27.54-4.747 3.5-9.878 6.48-14.891 9.61-1.319.82-2.829 1.33-4.816 2.25 9.767-.38 18.983-.75 28.205-1.11.124.43.242.86.365 1.29-1.361.74-2.667 1.95-4.103 2.14-4.945.64-9.94.88-14.904 1.37-7.873.77-15.734 1.66-23.606 2.41-5.274.5-10.56.83-15.833 1.3-3.936.35-7.866 1.07-11.803 1.12-4.066.06-8.151-.34-12.199-.81-4.809-.57-9.6-1.37-14.372-2.21a54 54 0 0 1-7.192-1.84c-1.863-.61-2.816-3.9-1.931-5.6.26-.5.204-1.24.105-1.84-.464-2.87-.947-5.75-1.504-8.61-.606-3.1.805-5.39 2.822-7.45.267-.28.793-.67.991-.58 2.736 1.29 3.676-1.2 5.1-2.46 4.834-4.3 9.643-8.62 14.347-13.07a4682 4682 0 0 0 32.735-31.236c1.133-1.089 2.328-2.135.774-4.394-1.312-1.906-1.343-4.803-1.597-7.297a332 332 0 0 1-1.269-16.427c-.179-3.54 1.647-3.85 4.915-3.435 5.081.644 4.425 3.887 4.295 7.019-.266 6.517-.755 13.022-1.157 19.614 4.834.297 9.599.687 14.371.848 4.593.155 9.26-.26 13.314 2.414-.006.322-.019.643-.025.965-9.922.545-19.837 1.09-30.111 1.653-1.585 5.973-6.016 10.98-10.621 15.529-9.204 9.107-18.964 17.657-28.558 26.477 12.224.71 24.64 1.83 37.217-.73-1.739.83-3.398 1.99-5.23 2.43-9.322 2.24-18.711 3.29-28.366 2.19-6.109-.69-12.527-2.06-18.042 2.08l1.578 11.19c6.914 1.98 13.629 3.59 20.122 5.85 6.901 2.41 13.647 2.16 20.648.7 7.483-1.55 15.064-2.64 22.609-3.85 3.243-.52 5.905-1.67 8.529-3.96 4.877-4.26 10.281-7.96 15.666-11.6 11.407-7.7 22.931-15.22 34.425-22.79 1.368-.91 2.847-1.64 4.27-2.46l-.105-.11z" fill="#000"/>
  <path d="M660.732 987.988c2.395.767 4.797 1.219 6.876 2.29 1.777.916 1.313 2.593-.501 2.835-2.364.315-4.908.278-7.204-.304-1.015-.253-1.597-2.209-2.383-3.391 1.027-.458 2.061-.916 3.212-1.43M482.07 365.009c-4.742-2.773-7.514-6.257-9.13-10.701-.235-.656-1.609-1.356-2.383-1.281-6.158.631-12.304 1.46-18.45 2.191-4.902.581-9.804 1.12-15.115 1.726 3.485 4.977 6.741 9.656 10.052 14.292.272.383.959.736 1.411.687a2041 2041 0 0 0 22.034-2.451c4.079-.477 8.152-1.022 12.478-1.077-1.733.755-3.404 1.875-5.211 2.197-7.929 1.399-15.889 2.606-23.848 3.794a49 49 0 0 1-7.304.551c-.575 0-1.182-1.114-1.708-1.77-.328-.409-.495-.941-.786-1.38-2.736-4.098-5.447-8.214-8.238-12.274-.767-1.114-1.937-1.968-2.593-3.132-.236-.414.371-1.881.835-2.018 3.064-.878 6.165-1.813 9.315-2.184 9.879-1.176 19.775-2.148 29.678-3.089.941-.087 2.47.341 2.847 1.021 2.13 3.832 4.054 7.78 5.886 11.766.409.892.18 2.08.242 3.132zm-64.506-49.36c-1.275-1.739-2.556-3.478-4.301-5.849.198 1.863.383 2.822.371 3.776-.013.866-.248 1.72-.39 2.587-1.108-.304-2.946-.316-3.206-.96a91.5 91.5 0 0 1-3.658-11.308c-.161-.625 1.157-2.215 2.018-2.426 5.836-1.411 11.722-2.593 17.608-3.794 1.461-.297 3.009-.718 4.432-.52 3.206.452 4.599 2.934 5.385 5.756.588 2.117.712 4.388 1.504 6.412 1.04 2.649-.075 3.609-2.34 4.506-4.648 1.845-14.582 3.429-20.016 2.383.854-.198 1.708-.39 2.556-.594l17.46-3.305c-2.587-4.19-2.556-4.097-6.95-2.6-.929.316-2.266-.21-3.287-.637-.761-.322-1.331-1.114-2.278-1.962-.216 5.1-4.567 2.141-6.369 3.955.483 1.529.96 3.051 1.436 4.58zm15.214-7.334c-.793-2.761-1.201-4.711-1.95-6.524-.297-.712-1.455-1.665-2.043-1.56-5.292.966-10.546 2.142-15.956 3.281.551 1.077.879 1.931 1.387 2.667.637.929 1.293 2.315 2.16 2.501 1.498.322 3.311.693 4.215-1.721.297-.786 2.618-1.355 3.862-1.133 2.674.471 5.242 1.523 8.337 2.482zm21.693 1.726c-5.669-.024-9.265-3.181-9.296-8.151-.031-4.556 3.751-7.984 8.764-7.941 4.24.031 8.046 4.89 7.966 10.064-.068 4.035-3.392 6.325-7.434 6.034zm4.642-5.211c-1.467-3.949-3.28-6.425-7.006-7.18-.916 2.872-.384 5.713 1.356 7.632.742.817 3.54-.229 5.65-.452m-9.253-7.576c-3.67 3.472-3.856 5.304-1.077 6.784.347-2.191.724-4.537 1.077-6.784" fill="#000"/>
  <path d="M467.382 358.368c-4.159 3.392-19.651 4.661-23.408 1.919 4.005-3.107 20.995-4.5 23.408-1.919m-1.095-29.629c.167 2.705-1.894 5.329-4.283 5.466-3.243.185-5.527-1.591-5.676-4.481-.124-2.303.025-5.076 2.73-5.305 6.17-.513 6.981.223 7.235 4.314zm-7.403-1.807c.421 2.581 1.405 3.336 4.271 3.231-.068-2.94-1.51-3.899-4.271-3.231m4.618 39.098c-3.708.916-7.409 1.832-11.42 2.829.588-3.782 7.099-5.472 11.42-2.829m251.554-113.216c-1.089-2.135-2.253-4.233-3.206-6.43-.204-.471.365-1.275.582-1.925.613.266 1.591.383 1.77.829.91 2.259 1.615 4.599 2.389 6.914l-1.529.612zm-231.315 58.812c-5.502-2.971-7.254-8.127-9.94-12.534-.167-.266.47-1.485.829-1.528 1.188-.149 3.033-.458 3.528.167a89 89 0 0 1 7.025 10.206c.378.637-.829 2.21-1.448 3.689zM586.75 84.445c1.084.706 2.328 1.269 3.194 2.185.433.458.18 1.566.242 2.383-.316.117-.632.229-.941.346q-1.683-1.95-3.355-3.899l.867-1.015z" fill="#000"/>
  <path d="M449.86 297.254c-.359 2.247-.73 4.586-1.077 6.784-2.779-1.473-2.593-3.312 1.077-6.784" fill="#fff"/>
</svg>
